<svg version="1.1" id="Layer_1" xmlns="http://www.w3.org/2000/svg" xmlns:xlink="http://www.w3.org/1999/xlink" x="0px" y="0px"
     width="100%" viewBox="0 0 587 365" enable-background="new 0 0 587 365" xml:space="preserve">
    
    <path fill="#FFFFFF" opacity="1.000000" stroke="none" 
        d="M420.552551,120.008438 
        C431.760529,111.717834 442.993835,103.409912 456.275116,98.655052 
        C473.303284,92.558754 490.592102,92.708527 507.622406,98.290260 
        C522.423157,103.141266 527.136597,115.343964 528.938293,129.560898 
        C531.029297,146.061188 526.497742,161.472519 521.835022,176.839600 
        C513.823975,203.241501 502.565674,228.206680 487.980530,251.681412 
        C485.620758,255.479477 482.649963,257.068329 478.545898,257.993317 
        C465.829346,260.859528 453.151337,260.720764 440.561066,257.699738 
        C433.719360,256.058044 433.490143,254.679291 436.878784,248.740204 
        C455.167358,216.686813 468.230743,182.655273 473.885773,146.122635 
        C475.565735,135.269653 475.001221,124.044495 475.083740,112.987030 
        C475.103455,110.348694 473.593292,107.698952 472.698120,104.763870 
        C455.912384,110.536812 441.230957,118.898438 427.746826,129.455521 
        C426.051636,130.782715 424.539490,132.411423 422.695312,133.469589 
        C410.628143,140.393585 408.094452,153.260559 402.897095,164.558319 
        C394.538086,182.728622 386.758606,201.274628 376.829376,218.568192 
        C371.740509,227.431381 363.448761,235.285904 354.902740,241.091019 
        C346.986023,246.468658 336.651520,244.821503 327.383026,242.131439 
        C326.324921,241.824356 325.571930,239.072525 325.385040,237.376312 
        C323.802887,223.015976 330.353729,210.650238 335.292725,197.895111 
        C343.760315,176.027130 352.649506,154.309860 360.541718,132.236145 
        C365.581665,118.140015 369.146179,103.516357 373.372162,89.129204 
        C372.963867,88.740730 372.555542,88.352257 372.147247,87.963783 
        C366.761932,92.059608 361.311920,96.074051 356.016541,100.282974 
        C353.028625,102.657829 350.493530,105.628418 347.407776,107.848839 
        C339.929779,113.229744 339.357544,121.185020 338.277405,129.333527 
        C335.563354,149.808273 328.642761,169.186523 321.855713,188.568024 
        C313.596527,212.153351 305.102295,235.625748 293.693176,257.957642 
        C287.995148,269.110748 280.229553,278.380768 270.689514,286.250122 
        C268.876190,287.745880 266.254883,288.963867 263.961487,289.045258 
        C256.892609,289.296143 249.793884,289.094635 242.723602,288.736511 
        C239.667664,288.581726 239.305267,286.715210 239.530334,283.515930 
        C242.003616,248.361038 259.092041,217.535904 268.503021,184.455917 
        C273.834503,165.715500 278.784119,146.866318 283.870667,128.056656 
        C284.114716,127.154152 284.019318,126.159851 284.130646,124.469368 
        C266.217712,126.541344 248.686172,128.569199 231.760803,130.526947 
        C229.814209,143.765717 229.240433,156.736069 225.795197,168.892639 
        C221.078308,185.536285 214.625992,201.743057 208.095490,217.802826 
        C201.095047,235.018234 192.295914,251.390015 181.004074,266.255524 
        C166.562668,285.267303 147.702682,296.578400 123.661736,298.956329 
        C112.535530,300.056854 101.619614,300.131927 90.493271,298.117401 
        C74.189079,295.165405 62.135971,279.638763 62.588383,262.030090 
        C63.681358,219.489517 81.439964,185.129044 113.730049,157.825760 
        C130.152023,143.939957 149.555389,136.783264 170.102982,132.157471 
        C173.802887,131.324524 175.599548,130.212601 175.365646,126.069283 
        C174.478775,110.360161 173.869614,94.635345 173.097092,77.604698 
        C164.211166,80.763039 156.923477,83.225090 149.778595,86.048561 
        C148.842865,86.418350 148.639648,88.641800 147.842453,90.647453 
        C141.783142,93.326996 133.978561,92.302872 128.666229,87.097824 
        C130.895905,85.610672 132.892929,84.049805 135.087860,82.851357 
        C150.958221,74.186104 168.181625,69.473930 185.778412,66.108406 
        C218.989960,59.756435 252.679810,57.564022 286.325989,55.078457 
        C305.237213,53.681412 324.147278,52.226654 343.079071,51.183571 
        C346.928619,50.971474 350.873352,52.486877 354.774200,53.205910 
        C354.775024,54.122486 354.775818,55.039059 354.776642,55.955635 
        C349.737640,56.856094 344.732513,58.169930 339.653839,58.586151 
        C316.462311,60.486805 293.236908,61.978203 270.049805,63.927395 
        C253.188950,65.344780 236.368713,67.245506 219.532867,68.955490 
        C219.309418,68.978180 219.118988,69.325905 218.288315,70.116890 
        C227.446548,71.721390 226.942154,79.042480 227.855133,85.434586 
        C229.111969,94.234055 230.135178,103.066902 231.398880,112.987740 
        C234.675522,108.300896 237.350082,104.236237 240.265259,100.352173 
        C247.738922,90.394539 254.548691,79.215652 266.677856,74.611671 
        C286.240356,67.186134 305.927246,67.062737 324.566711,78.147957 
        C330.191803,81.493279 333.592529,86.828575 335.841339,92.900169 
        C336.634552,95.041786 337.408844,97.190414 338.426849,99.980095 
        C343.278595,95.576454 347.825653,91.547867 352.257721,87.396538 
        C356.027313,83.865685 359.695221,80.224266 363.353455,76.576920 
        C369.816132,70.133469 377.713867,66.966309 386.703491,67.176018 
        C394.298401,67.353188 401.966522,67.788322 409.434570,69.079300 
        C417.314697,70.441513 420.485657,74.222298 420.586914,82.550034 
        C420.729645,94.294762 419.974976,106.050385 419.346558,118.417511 
        C419.088715,119.651131 419.088318,120.268578 419.087952,120.886032 
        C419.576141,120.593506 420.064331,120.300972 420.552551,120.008438 
        M72.659676,257.381683 
        C74.328697,263.205322 75.227951,269.402618 77.834198,274.771271 
        C82.599342,284.587006 91.934845,289.324585 101.937836,291.522461 
        C108.234436,292.906006 112.487961,287.007019 117.052071,283.303070 
        C117.675018,282.797546 118.160210,282.119812 118.697266,281.511261 
        C130.325256,268.334351 138.586136,253.059052 145.788971,237.211319 
        C157.027374,212.484436 167.837097,187.557632 172.659546,160.587326 
        C173.856750,153.891830 174.250443,147.052643 175.063553,139.835022 
        C142.283890,148.100006 117.108887,166.184128 97.054832,191.463745 
        C82.066811,210.357269 73.806297,232.155655 72.659676,257.381683 
        M267.120087,89.605247 
        C256.603210,99.035477 246.166870,108.536987 238.035248,121.696960 
        C254.512527,119.836197 269.749756,118.115471 284.837799,116.411591 
        C286.524628,103.920174 286.980225,92.140648 281.484833,79.929230 
        C276.627716,83.178444 272.155640,86.170097 267.120087,89.605247 
        z"/>
</svg>